<svg version="1.1" id="Layer_1" xmlns="http://www.w3.org/2000/svg" xmlns:xlink="http://www.w3.org/1999/xlink" x="0px" y="0px"
	 width="100%" viewBox="0 0 3935 3955" enable-background="new 0 0 3935 3955" xml:space="preserve">
<path fill="#1C2EA7" opacity="1.000000" stroke="none" 
	d="
M3938.000000,1054.000000 
	C3938.000000,2022.666626 3938.000000,2990.333252 3938.000000,3958.000000 
	C2626.000000,3958.000000 1314.000000,3958.000000 2.000000,3958.000000 
	C2.000000,2639.333252 2.000000,1320.666626 2.000000,2.000001 
	C1314.000000,2.000000 2626.000000,2.000000 3938.000000,2.000000 
	C3938.000000,352.333344 3938.000000,702.666687 3938.000000,1054.000000 
z"/>
<path fill="#CEEBFE" opacity="1.000000" stroke="none" 
	d="
M3689.161865,3733.486084 
	C3688.041504,3735.821533 3687.754150,3737.602783 3686.839844,3739.650635 
	C3685.289307,3739.266113 3684.263916,3738.999512 3682.301758,3739.076660 
	C3680.298340,3738.979248 3679.134033,3738.905029 3677.041016,3738.776855 
	C3644.371338,3733.327881 3612.344238,3735.038574 3580.405273,3735.037354 
	C2482.550537,3734.992432 1384.695679,3735.000977 286.840942,3734.959473 
	C280.217194,3734.959229 273.528137,3735.769775 266.114136,3733.553711 
	C262.738068,3730.287109 263.107727,3726.847412 263.039032,3723.548340 
	C262.934906,3718.549805 263.000702,3713.549072 263.000702,3708.549072 
	C262.999939,2581.892578 263.000366,1455.235840 262.993958,328.579285 
	C262.993896,318.895538 263.182037,309.206940 262.420380,298.527527 
	C262.453217,296.855469 262.558502,296.190308 263.215088,294.678589 
	C263.766388,293.832092 264.080353,293.765747 264.115356,293.922333 
	C266.623505,291.300781 269.940643,291.079102 273.323975,291.037659 
	C276.989777,290.992737 280.655670,291.000946 284.321533,291.000946 
	C1412.752441,290.999939 2541.183350,290.999542 3669.614258,291.013153 
	C3674.941650,291.013214 3680.280273,290.736328 3686.554199,291.667847 
	C3688.105225,292.266815 3688.696533,292.577332 3690.138672,293.417511 
	C3694.640137,296.788055 3694.390381,300.989319 3694.654541,304.919464 
	C3695.057129,310.906158 3694.884277,316.913452 3694.884277,322.912323 
	C3694.889648,1449.785034 3694.889893,2576.657715 3694.861328,3703.530518 
	C3694.861084,3711.846191 3695.443848,3720.204590 3693.375488,3729.362793 
	C3692.115479,3731.323975 3691.131104,3732.212158 3689.161865,3733.486084 
z"/>
<path fill="#228AFD" opacity="1.000000" stroke="none" 
	d="
M263.008881,293.514587 
	C263.847961,294.164246 263.929504,294.496399 264.099365,295.333923 
	C264.339935,296.483795 264.492279,297.128265 264.447327,298.747223 
	C263.815826,304.378784 264.009247,309.048248 264.009186,313.711792 
	C263.999664,1446.942871 263.999847,2580.173828 264.004120,3713.405029 
	C264.004120,3717.737305 263.915833,3722.070801 264.269958,3727.387695 
	C264.614868,3729.008545 264.813538,3729.643311 265.375671,3731.206787 
	C270.263550,3733.882080 274.976501,3732.951660 279.585541,3732.951660 
	C1409.119263,3733.001465 2538.653076,3733.000244 3668.186768,3733.009033 
	C3672.851074,3733.009277 3677.518799,3732.839355 3683.009766,3733.716797 
	C3683.908447,3735.093750 3683.977539,3735.914795 3684.139160,3737.347412 
	C3684.454346,3738.301514 3684.676758,3738.644287 3684.716064,3739.572021 
	C3684.446045,3775.816895 3684.372314,3811.476562 3684.264648,3847.136475 
	C3684.216797,3862.919678 3685.545166,3862.585693 3669.244141,3862.674316 
	C3386.953369,3864.211670 3104.660400,3863.228516 2822.368896,3863.283203 
	C1975.142822,3863.447510 1127.916626,3863.347412 280.690552,3863.318115 
	C256.169128,3863.317139 259.928314,3865.380615 259.782196,3842.718506 
	C259.571594,3810.057129 259.761475,3777.393799 259.705139,3744.731201 
	C259.686279,3733.791992 259.309540,3733.389893 248.529388,3733.369629 
	C214.533813,3733.305176 180.538040,3733.345459 146.542343,3733.338379 
	C143.876450,3733.337891 141.210587,3733.267090 138.544632,3733.261719 
	C134.564209,3733.253418 132.248383,3731.579102 132.326096,3727.303711 
	C132.374527,3724.638916 132.267136,3721.972168 132.267136,3719.306152 
	C132.263931,2581.116943 132.261993,1442.927612 132.289352,304.738281 
	C132.289642,292.412720 130.102570,291.987488 144.475052,291.994904 
	C180.137207,292.013245 215.799393,291.979370 251.461472,292.033813 
	C255.074844,292.039337 258.816162,291.342285 263.008881,293.514587 
z"/>
<path fill="#228AFD" opacity="1.000000" stroke="none" 
	d="
M3689.393311,3732.222656 
	C3689.739258,3728.253174 3689.677246,3724.920898 3689.677246,3721.588867 
	C3689.673096,2582.500977 3689.673340,1443.412964 3689.674805,304.325012 
	C3689.674805,301.658905 3689.694336,298.992798 3689.750488,295.422913 
	C3689.548828,294.104492 3689.301514,293.689880 3689.504883,292.708160 
	C3730.278320,292.097046 3770.601807,292.008759 3810.925049,292.043549 
	C3819.809570,292.051208 3819.972900,292.382477 3820.241943,300.920654 
	C3820.336426,303.917114 3820.270752,306.918793 3820.270752,309.918091 
	C3820.271240,1444.660034 3820.274658,2579.402100 3820.247070,3714.144043 
	C3820.246582,3734.317383 3822.384521,3732.187256 3802.242676,3732.736816 
	C3765.589111,3733.736328 3728.938477,3733.242676 3691.380615,3733.153809 
	C3689.988281,3733.030273 3689.501221,3732.945312 3689.393311,3732.222656 
z"/>
<path fill="#228AFD" opacity="1.000000" stroke="none" 
	d="
M3689.885254,291.195251 
	C3689.929443,292.537445 3689.904053,292.933868 3689.837402,293.924683 
	C3689.796387,294.519104 3688.886963,294.270599 3688.446289,294.103577 
	C3683.504883,292.046234 3678.782959,293.052490 3674.183105,293.052246 
	C2542.855225,292.998444 1411.527344,293.000153 280.199402,292.993927 
	C275.515411,292.993927 270.829712,293.111633 265.211548,292.497009 
	C264.271973,252.779572 264.266937,213.452469 264.266602,174.125351 
	C264.266571,171.792618 264.361298,169.458679 264.311523,167.127441 
	C264.241028,163.826233 265.826447,162.188278 269.092529,162.141235 
	C273.090546,162.083649 277.088837,162.005936 281.087006,162.005859 
	C645.034790,161.999695 1008.982544,162.000092 1372.930298,162.000092 
	C2137.820557,162.000092 2902.710938,162.000076 3667.601074,162.000305 
	C3671.267334,162.000305 3674.934326,161.952469 3678.599365,162.015305 
	C3687.512939,162.168091 3688.695312,163.218170 3689.583252,172.272842 
	C3689.875000,175.246887 3689.728760,178.266800 3689.731445,181.265793 
	C3689.764648,217.593674 3689.788818,253.921539 3689.885254,291.195251 
z"/>
<path fill="#A3EBFE" opacity="1.000000" stroke="none" 
	d="
M264.167175,292.594818 
	C268.275330,292.071136 272.274658,292.004425 276.273987,292.004395 
	C1408.919189,291.999878 2541.564453,291.999084 3674.209717,292.033051 
	C3678.511475,292.033203 3682.871338,291.379211 3687.563965,293.293823 
	C3683.006836,293.957672 3678.008545,293.997375 3673.010010,293.997375 
	C2541.983643,294.000061 1410.957153,293.999969 279.930695,294.001251 
	C275.265228,294.001251 270.599792,294.019836 265.042328,294.054352 
	C264.119629,293.746918 264.088959,293.414948 264.167175,292.594818 
z"/>
<path fill="#205CD2" opacity="1.000000" stroke="none" 
	d="
M3689.299316,3731.834473 
	C3689.772217,3731.585205 3690.119141,3732.355225 3690.297363,3732.735352 
	C3690.127197,3733.292236 3689.779053,3733.468994 3688.879639,3733.843018 
	C3688.494385,3733.387939 3688.660400,3732.735840 3689.299316,3731.834473 
z"/>
<path fill="#1E45BD" opacity="1.000000" stroke="none" 
	d="
M3684.956055,3740.117676 
	C3684.447754,3739.795166 3684.362305,3739.433350 3684.254395,3738.515137 
	C3684.958008,3738.007568 3685.506104,3738.345459 3686.044189,3739.444824 
	C3686.212402,3739.917236 3685.378662,3740.078125 3684.956055,3740.117676 
z"/>
<path fill="#228AFD" opacity="1.000000" stroke="none" 
	d="
M532.702393,3473.478027 
	C529.958435,3473.687500 528.542725,3473.000244 528.472595,3470.934326 
	C528.370850,3467.937744 528.330322,3464.937744 528.330322,3461.939209 
	C528.327271,2495.401367 528.329895,1528.863403 528.338257,561.423584 
	C530.778748,557.823181 533.992798,559.058472 536.827026,559.058350 
	C1496.601929,559.006592 2456.376953,558.984131 3416.151855,559.015747 
	C3416.817627,559.015747 3417.483643,559.071594 3419.086426,559.448608 
	C3421.499756,560.959717 3421.604248,562.626953 3421.624756,564.295654 
	C3421.665527,567.627808 3421.673584,570.960510 3421.673584,574.293030 
	C3421.675537,1535.430298 3421.675293,2496.567627 3421.673828,3457.704834 
	C3421.673828,3461.037354 3421.654785,3464.369873 3421.638428,3467.702393 
	C3421.624512,3470.541260 3420.977295,3472.987793 3417.004395,3473.841064 
	C3413.042969,3472.329102 3409.653564,3473.032959 3406.367432,3473.032715 
	C2451.121582,3472.999023 1495.875977,3472.999756 540.630249,3473.001465 
	C538.296204,3473.001465 535.961060,3472.953125 532.702393,3473.478027 
z"/>
<path fill="#495DBD" opacity="1.000000" stroke="none" 
	d="
M264.663757,3732.583984 
	C264.073669,3731.881592 263.982422,3731.510498 263.786133,3730.576172 
	C262.474548,3726.777832 263.030334,3723.409668 263.030273,3720.106445 
	C263.003998,2582.353271 263.004425,1444.600098 263.005859,306.846893 
	C263.005859,304.526154 262.967682,302.204712 263.385010,298.935883 
	C263.750336,297.624664 263.819061,297.262848 264.037720,296.370178 
	C265.477448,296.569824 265.914276,297.753021 265.929108,299.150360 
	C265.957397,301.816498 265.997131,304.482697 265.997131,307.148895 
	C265.999939,1446.478516 265.999786,2585.808105 265.998596,3725.137695 
	C265.998596,3726.804443 265.983307,3728.470947 265.930908,3731.049561 
	C265.645294,3732.279297 265.403900,3732.597412 264.663757,3732.583984 
z"/>
<path fill="#A3BAFD" opacity="1.000000" stroke="none" 
	d="
M264.686035,3732.834229 
	C264.164948,3732.252441 265.017853,3732.061279 265.452271,3732.011230 
	C271.218536,3731.974365 276.550446,3731.998535 281.882324,3731.998535 
	C1410.590698,3732.000000 2539.299072,3731.998535 3668.007568,3732.050537 
	C3672.941406,3732.050781 3678.002686,3731.036621 3683.329834,3733.666992 
	C3678.843262,3734.181641 3673.847168,3734.011230 3668.851318,3734.011230 
	C2538.948242,3733.999756 1409.045410,3734.000732 279.142395,3733.970703 
	C274.498993,3733.970703 269.812958,3734.547852 264.686035,3732.834229 
z"/>
<path fill="#A3BAFD" opacity="1.000000" stroke="none" 
	d="
M3419.373291,559.329651 
	C3414.692383,559.863892 3409.361328,559.991516 3404.030029,559.991516 
	C2451.057861,560.000305 1498.085815,559.999634 545.113770,560.010254 
	C540.117065,560.010315 535.120361,560.165466 529.233887,560.384949 
	C529.495361,558.532104 531.426941,558.124390 533.477173,558.086060 
	C537.141663,558.017517 540.807678,558.003052 544.473022,558.003052 
	C1497.593872,557.999939 2450.714844,557.998657 3403.835693,558.036865 
	C3408.797607,558.037048 3413.835938,557.273193 3419.373291,559.329651 
z"/>
<path fill="#A3EBFE" opacity="1.000000" stroke="none" 
	d="
M532.708008,3473.893555 
	C532.821533,3472.254883 534.463013,3472.055664 536.146973,3472.037354 
	C539.478943,3472.000977 542.811279,3472.000977 546.143494,3472.000977 
	C1498.173706,3471.999756 2450.203857,3471.999023 3402.234131,3472.029785 
	C3406.539551,3472.029785 3410.896240,3471.429443 3415.687988,3473.239258 
	C3412.222900,3473.898193 3408.224365,3473.993896 3404.225830,3473.993896 
	C2450.696777,3474.000488 1497.167847,3474.000244 543.638916,3473.997559 
	C540.306091,3473.997559 536.973267,3473.958252 532.708008,3473.893555 
z"/>
<path fill="#2173E8" opacity="1.000000" stroke="none" 
	d="
M263.268616,298.648743 
	C263.787720,302.314575 263.986816,306.642700 263.986877,310.970795 
	C264.000366,1446.374756 264.000122,2581.778564 263.995148,3717.182617 
	C263.995148,3720.847656 263.921356,3724.512939 263.781555,3729.095459 
	C262.171753,3728.035156 262.012726,3725.720459 262.013062,3723.362549 
	C262.013550,3720.030029 262.000610,3716.697510 262.000610,3713.364990 
	C262.000000,2580.308594 261.998810,1447.252075 262.038208,314.195557 
	C262.038391,309.235413 261.254395,304.196899 263.268616,298.648743 
z"/>
<path fill="#1A3FF7" opacity="1.000000" stroke="none" 
	d="
M625.851440,1598.000000 
	C625.851501,1290.347656 625.850586,983.695251 625.855652,677.042847 
	C625.855957,658.981445 624.743835,660.002136 642.486084,660.002075 
	C1527.444946,659.999878 2412.403809,659.999695 3297.362549,660.003113 
	C3315.122803,660.003174 3314.146973,658.874756 3314.147217,676.891296 
	C3314.147705,1561.516846 3314.147461,2446.142334 3314.146484,3330.767822 
	C3314.146484,3347.010010 3314.127197,3346.896484 3297.897949,3348.798828 
	C3292.245605,3349.461670 3286.613525,3349.690674 3280.946045,3349.690674 
	C2405.653564,3349.687500 1530.360962,3349.683594 655.068420,3349.754883 
	C647.033875,3349.755371 639.130188,3348.460205 631.142822,3348.325195 
	C626.612793,3348.248291 625.550720,3345.889404 625.749939,3341.914551 
	C625.966492,3337.591309 625.849915,3333.250732 625.849915,3328.917725 
	C625.852234,2752.278564 625.851929,2175.639160 625.851440,1598.000000 
z"/>
<path fill="#182DA8" opacity="1.000000" stroke="none" 
	d="
M2450.000000,3227.646484 
	C1891.389648,3227.646729 1333.779297,3227.638184 776.168945,3227.683105 
	C752.833740,3227.685059 756.202698,3226.568604 756.201721,3207.333984 
	C756.159241,2402.415283 756.165222,1597.496460 756.167664,792.577759 
	C756.167725,788.911682 756.282654,785.244019 756.205200,781.580017 
	C756.097412,776.486633 758.692322,774.331177 763.577942,774.402588 
	C766.243164,774.441589 768.910034,774.354248 771.576172,774.354248 
	C1565.495972,774.351685 2359.415771,774.347656 3153.335693,774.409180 
	C3161.312256,774.409790 3169.285889,775.346924 3177.266846,775.710815 
	C3181.729736,775.914368 3184.014648,778.023132 3184.050537,782.517761 
	C3184.077148,785.850098 3184.156982,789.182251 3184.156982,792.514526 
	C3184.161865,1598.433228 3184.161865,2404.351807 3184.159912,3210.270508 
	C3184.159912,3227.437012 3184.067627,3227.622803 3166.926514,3227.629150 
	C3067.270020,3227.665039 2967.613281,3227.648438 2867.956787,3227.648682 
	C2728.971191,3227.648682 2589.985596,3227.647949 2450.000000,3227.646484 
z"/>
<path fill="#11183B" opacity="1.000000" stroke="none" 
	d="
M1756.000000,3120.000000 
	C1462.005737,3120.000000 1169.011597,3120.007812 876.017334,3119.979248 
	C858.665527,3119.977783 859.774170,3121.758057 859.773926,3103.861084 
	C859.762817,2376.541992 859.762817,1649.223022 859.773499,921.904053 
	C859.773804,904.802917 858.485229,905.822571 875.929993,905.348389 
	C938.583740,903.645081 1001.244690,904.632202 1063.899780,904.622559 
	C1728.553345,904.519775 2393.206787,904.558289 3057.860352,904.560791 
	C3080.479736,904.560852 3077.733398,903.329041 3077.734375,924.464966 
	C3077.770020,1650.117310 3077.769043,2375.769775 3077.740479,3101.422119 
	C3077.739502,3122.738770 3079.805664,3119.959961 3058.970459,3119.962158 
	C2624.980225,3120.011963 2190.990234,3120.000000 1756.000000,3120.000000 
z"/>
</svg>