<svg version="1.1" id="Layer_1" xmlns="http://www.w3.org/2000/svg" xmlns:xlink="http://www.w3.org/1999/xlink" x="0px" y="0px"
	 width="100%" viewBox="0 0 3935 3955" enable-background="new 0 0 3935 3955" xml:space="preserve">
<path fill="#A54C28" opacity="1.000000" stroke="none" 
	d="
M3938.000000,1046.000000 
	C3938.000000,2017.333374 3938.000000,2987.666748 3938.000000,3958.000000 
	C2626.000000,3958.000000 1314.000000,3958.000000 2.000000,3958.000000 
	C2.000000,2639.333252 2.000000,1320.666626 2.000000,2.000001 
	C1314.000000,2.000000 2626.000000,2.000000 3938.000000,2.000000 
	C3938.000000,349.666656 3938.000000,697.333313 3938.000000,1046.000000 
M133.285873,292.711761 
	C132.831207,293.096222 132.565277,293.583618 132.370529,296.022705 
	C132.324158,301.020691 132.237183,306.018646 132.237152,311.016632 
	C132.231247,1445.688843 132.231094,2580.361084 132.240646,3715.033203 
	C132.240692,3720.696777 132.380630,3726.360596 132.730103,3732.717041 
	C133.026764,3733.153320 133.435303,3733.415039 135.833542,3733.584473 
	C173.106140,3733.628174 210.378860,3733.628174 247.651245,3733.742432 
	C259.193481,3733.777832 259.720154,3734.304443 259.739990,3745.381348 
	C259.803223,3780.657715 259.805450,3815.934082 259.696167,3851.209961 
	C259.685059,3854.800781 258.762085,3858.388916 258.654968,3862.693604 
	C259.010651,3863.136719 259.466766,3863.415527 261.893219,3863.598389 
	C267.224792,3863.634521 272.556335,3863.701904 277.887909,3863.701904 
	C1406.582886,3863.706299 2535.277832,3863.706299 3663.972900,3863.698486 
	C3669.970459,3863.698486 3675.968262,3863.587646 3682.728271,3863.236572 
	C3683.209229,3862.935303 3683.545654,3862.517822 3683.915771,3860.117676 
	C3684.020752,3854.498779 3684.200439,3848.879883 3684.218994,3843.260742 
	C3684.334229,3808.209961 3684.413330,3773.159424 3685.868408,3737.934570 
	C3686.701416,3736.501709 3687.534180,3735.068848 3690.195312,3733.665039 
	C3732.785400,3733.619629 3775.375732,3733.574219 3818.728271,3733.236572 
	C3819.209229,3732.935303 3819.545654,3732.517822 3819.915771,3730.117676 
	C3820.020996,3725.454834 3820.218018,3720.792236 3820.218018,3716.129395 
	C3820.231445,2580.734619 3820.231934,1445.339722 3820.209961,309.944855 
	C3820.209717,304.618958 3819.886963,299.293091 3819.375732,293.239655 
	C3819.041260,292.784271 3818.595703,292.508698 3816.162598,292.307129 
	C3774.756836,292.350159 3733.351074,292.393188 3690.978271,292.207428 
	C3690.978271,292.207428 3689.992432,292.083923 3689.861572,290.202362 
	C3689.830322,252.335648 3689.851318,214.468735 3689.694336,176.602509 
	C3689.677002,172.388550 3688.645752,168.178802 3687.568115,163.253799 
	C3687.162842,162.796310 3686.658936,162.516617 3684.177734,162.308136 
	C3679.512695,162.267761 3674.847412,162.192017 3670.182373,162.192001 
	C2541.446777,162.186859 1412.711426,162.186630 283.975891,162.197403 
	C278.645660,162.197449 273.315399,162.355331 267.009125,162.281433 
	C267.009125,162.281433 266.020294,162.285904 265.285919,162.711777 
	C264.831238,163.096161 264.565308,163.583542 264.370483,166.022614 
	C264.415894,207.974884 264.461304,249.927155 264.137085,292.908020 
	C264.105286,293.270935 264.073486,293.633850 263.055084,293.971588 
	C263.055084,293.971588 262.069550,293.917084 261.996063,293.937866 
	C261.996063,293.937866 262.063110,293.967316 261.557068,293.252686 
	C261.155792,292.795593 260.655334,292.516357 258.177246,292.308289 
	C217.446533,292.352020 176.715805,292.395752 135.009048,292.281403 
	C135.009048,292.281403 134.020264,292.285858 133.285873,292.711761 
z"/>
<path fill="#FECFD1" opacity="1.000000" stroke="none" 
	d="
M264.041687,293.996765 
	C264.073486,293.633850 264.105286,293.270935 265.215576,292.439148 
	C270.960480,291.980194 275.626923,291.998749 280.293335,291.998749 
	C1411.286133,292.000031 2542.278809,292.000000 3673.271729,292.000000 
	C3677.897217,292.000000 3682.522461,292.000000 3688.589355,292.000000 
	C3688.975342,298.453156 3689.627441,304.265564 3689.627686,310.077972 
	C3689.672119,1447.070679 3689.672363,2584.063477 3689.617188,3721.056152 
	C3689.616943,3725.249268 3688.801514,3729.442627 3688.366943,3733.635742 
	C3687.534180,3735.068848 3686.701416,3736.501709 3684.958008,3737.226562 
	C3682.754883,3735.369385 3681.561035,3733.400146 3680.149658,3733.228516 
	C3676.205811,3732.750977 3672.171875,3732.992920 3668.173340,3732.992920 
	C2539.455322,3732.989502 1410.737427,3732.989990 282.019501,3732.979736 
	C276.690430,3732.979736 271.361389,3732.831299 266.018188,3731.757812 
	C266.002716,2590.221680 266.001343,1449.680176 265.998932,309.138489 
	C265.998932,305.472260 266.156250,301.793396 265.889771,298.146027 
	C265.782410,296.676453 264.730469,295.275879 264.049377,293.863678 
	C263.990387,293.883453 264.041687,293.996765 264.041687,293.996765 
M528.334351,1792.999878 
	C528.448730,2351.990723 528.562927,2910.981445 528.701416,3469.972168 
	C528.701538,3470.233887 529.061218,3470.502686 529.269104,3470.754883 
	C529.479736,3471.010986 529.710266,3471.250732 529.906799,3471.469238 
	C1493.479858,3471.469238 2457.027588,3471.469238 3421.120605,3471.469238 
	C3421.120605,2500.788330 3421.120605,1530.638184 3421.120605,558.989563 
	C2456.826416,558.989563 1493.031250,558.989563 528.334351,558.989563 
	C528.334351,970.486145 528.334351,1380.742920 528.334351,1792.999878 
z"/>
<path fill="#FE211C" opacity="1.000000" stroke="none" 
	d="
M266.032318,3732.752197 
	C271.361389,3732.831299 276.690430,3732.979736 282.019501,3732.979736 
	C1410.737427,3732.989990 2539.455322,3732.989502 3668.173340,3732.992920 
	C3672.171875,3732.992920 3676.205811,3732.750977 3680.149658,3733.228516 
	C3681.561035,3733.400146 3682.754883,3735.369385 3684.276123,3737.313477 
	C3684.413330,3773.159424 3684.334229,3808.209961 3684.218994,3843.260742 
	C3684.200439,3848.879883 3684.020752,3854.498779 3683.515869,3861.289551 
	C3682.707764,3862.790283 3682.324219,3863.145996 3681.965820,3863.528320 
	C3675.968262,3863.587646 3669.970459,3863.698486 3663.972900,3863.698486 
	C2535.277832,3863.706299 1406.582886,3863.706299 277.887909,3863.701904 
	C272.556335,3863.701904 267.224792,3863.634521 260.682709,3863.287598 
	C259.088196,3862.620850 258.684875,3862.287842 258.262268,3861.978271 
	C258.762085,3858.388916 259.685059,3854.800781 259.696167,3851.209961 
	C259.805450,3815.934082 259.803223,3780.657715 259.739990,3745.381348 
	C259.720154,3734.304443 259.193481,3733.777832 247.651245,3733.742432 
	C210.378860,3733.628174 173.106140,3733.628174 134.658768,3733.284668 
	C133.158295,3732.645996 132.815369,3732.325684 132.455215,3732.024170 
	C132.380630,3726.360596 132.240692,3720.696777 132.240646,3715.033203 
	C132.231094,2580.361084 132.231247,1445.688843 132.237152,311.016632 
	C132.237183,306.018646 132.324158,301.020691 132.810242,295.062073 
	C133.249939,294.101471 134.013489,294.014191 134.359192,293.772339 
	C135.157135,293.196777 135.583862,292.833099 135.985092,292.439484 
	C176.715805,292.395752 217.446533,292.352020 259.430145,292.644012 
	C261.114777,293.348450 261.574799,293.677643 262.063110,293.967316 
	C262.063110,293.967316 261.996063,293.937866 262.012695,294.856598 
	C262.019562,299.441406 262.001221,303.107483 262.001221,306.773560 
	C262.000031,1441.988892 261.999939,2577.204346 262.000824,3712.419678 
	C262.000824,3715.419434 261.798859,3718.439941 262.090454,3721.411865 
	C262.311127,3723.660889 263.169250,3725.847656 263.659119,3728.575439 
	C262.355194,3731.677734 262.668396,3733.238281 266.032318,3732.752197 
z"/>
<path fill="#FE211C" opacity="1.000000" stroke="none" 
	d="
M3689.281006,3733.650391 
	C3688.801514,3729.442627 3689.616943,3725.249268 3689.617188,3721.056152 
	C3689.672363,2584.063477 3689.672119,1447.070679 3689.627686,310.077972 
	C3689.627441,304.265564 3688.975342,298.453156 3688.589355,292.000000 
	C3682.522461,292.000000 3677.897217,292.000000 3673.271729,292.000000 
	C2542.278809,292.000000 1411.286133,292.000031 280.293335,291.998749 
	C275.626923,291.998749 270.960480,291.980194 265.400391,291.924866 
	C264.461304,249.927155 264.415894,207.974884 264.810181,165.062042 
	C265.249908,164.101456 266.013458,164.014221 266.359192,163.772369 
	C267.157135,163.196716 267.583862,162.833054 267.985168,162.439499 
	C273.315399,162.355331 278.645660,162.197449 283.975891,162.197403 
	C1412.711426,162.186630 2541.446777,162.186859 3670.182373,162.192001 
	C3674.847412,162.192017 3679.512695,162.267761 3685.433838,162.644409 
	C3687.125732,163.350433 3687.590576,163.679245 3688.084473,163.967102 
	C3688.645752,168.178802 3689.677002,172.388550 3689.694336,176.602509 
	C3689.851318,214.468735 3689.830322,252.335648 3690.140381,291.298889 
	C3690.419189,292.395447 3691.175781,292.578400 3691.175781,292.578400 
	C3691.175781,292.578400 3691.945312,292.436249 3691.945312,292.436249 
	C3733.351074,292.393188 3774.756836,292.350159 3817.363037,292.635773 
	C3818.927002,293.322021 3819.310791,293.656281 3819.714844,293.967194 
	C3819.886963,299.293091 3820.209717,304.618958 3820.209961,309.944855 
	C3820.231934,1445.339722 3820.231445,2580.734619 3820.218018,3716.129395 
	C3820.218018,3720.792236 3820.020996,3725.454834 3819.515869,3731.289551 
	C3818.707764,3732.790283 3818.324219,3733.145996 3817.965820,3733.528564 
	C3775.375732,3733.574219 3732.785400,3733.619629 3689.281006,3733.650391 
z"/>
<path fill="#E82C1F" opacity="1.000000" stroke="none" 
	d="
M263.743683,3728.062012 
	C263.169250,3725.847656 262.311127,3723.660889 262.090454,3721.411865 
	C261.798859,3718.439941 262.000824,3715.419434 262.000824,3712.419678 
	C261.999939,2577.204346 262.000031,1441.988892 262.001221,306.773560 
	C262.001221,303.107483 262.019562,299.441406 262.049438,294.846191 
	C262.069550,293.917084 263.055084,293.971588 263.548401,293.984192 
	C264.041687,293.996765 263.990387,293.883453 264.016327,294.782288 
	C264.028168,300.680145 264.001770,305.679108 264.001740,310.678101 
	C263.999908,1444.810181 264.000336,2578.942139 263.989410,3713.074219 
	C263.989380,3718.070068 263.829132,3723.066162 263.743683,3728.062012 
z"/>
<path fill="#E73622" opacity="1.000000" stroke="none" 
	d="
M3682.347168,3863.382568 
	C3682.324219,3863.145996 3682.707764,3862.790283 3683.426758,3862.222656 
	C3683.545654,3862.517822 3683.209229,3862.935303 3682.347168,3863.382568 
z"/>
<path fill="#E73622" opacity="1.000000" stroke="none" 
	d="
M258.458618,3862.335938 
	C258.684875,3862.287842 259.088196,3862.620850 259.747742,3863.253906 
	C259.466766,3863.415527 259.010651,3863.136719 258.458618,3862.335938 
z"/>
<path fill="#E73622" opacity="1.000000" stroke="none" 
	d="
M3818.347168,3733.382568 
	C3818.324219,3733.145996 3818.707764,3732.790283 3819.426758,3732.222656 
	C3819.545654,3732.517822 3819.209229,3732.935303 3818.347168,3733.382568 
z"/>
<path fill="#E82C1F" opacity="1.000000" stroke="none" 
	d="
M132.592651,3732.370605 
	C132.815369,3732.325684 133.158295,3732.645996 133.719849,3733.243164 
	C133.435303,3733.415039 133.026764,3733.153320 132.592651,3732.370605 
z"/>
<path fill="#E82C1F" opacity="1.000000" stroke="none" 
	d="
M266.013458,164.014221 
	C266.013458,164.014221 265.249908,164.101456 264.868988,164.137680 
	C264.565308,163.583542 264.831238,163.096161 265.650269,162.930237 
	C266.014648,163.148697 266.013458,164.014221 266.013458,164.014221 
z"/>
<path fill="#E82C1F" opacity="1.000000" stroke="none" 
	d="
M134.013489,294.014191 
	C134.013489,294.014191 133.249939,294.101471 132.869003,294.137756 
	C132.565277,293.583618 132.831207,293.096222 133.650269,292.930237 
	C134.014664,293.148682 134.013489,294.014191 134.013489,294.014191 
z"/>
<path fill="#E7211C" opacity="1.000000" stroke="none" 
	d="
M266.359192,163.772369 
	C266.013458,164.014221 266.014648,163.148697 266.017456,162.717300 
	C266.020294,162.285904 267.009125,162.281433 267.497131,162.360474 
	C267.583862,162.833054 267.157135,163.196716 266.359192,163.772369 
z"/>
<path fill="#E7211C" opacity="1.000000" stroke="none" 
	d="
M3819.545410,293.603424 
	C3819.310791,293.656281 3818.927002,293.322021 3818.301270,292.688690 
	C3818.595703,292.508698 3819.041260,292.784271 3819.545410,293.603424 
z"/>
<path fill="#E7211C" opacity="1.000000" stroke="none" 
	d="
M3691.461914,292.321838 
	C3691.945312,292.436249 3691.175781,292.578400 3691.175781,292.578400 
	C3691.175781,292.578400 3690.419189,292.395447 3690.205811,292.239685 
	C3689.992432,292.083923 3690.978271,292.207428 3691.461914,292.321838 
z"/>
<path fill="#E7211C" opacity="1.000000" stroke="none" 
	d="
M3687.826172,163.610458 
	C3687.590576,163.679245 3687.125732,163.350433 3686.373047,162.697693 
	C3686.658936,162.516617 3687.162842,162.796310 3687.826172,163.610458 
z"/>
<path fill="#E7211C" opacity="1.000000" stroke="none" 
	d="
M261.810089,293.609985 
	C261.574799,293.677643 261.114777,293.348450 260.369354,292.697357 
	C260.655334,292.516357 261.155792,292.795593 261.810089,293.609985 
z"/>
<path fill="#E7211C" opacity="1.000000" stroke="none" 
	d="
M134.359192,293.772339 
	C134.013489,294.014191 134.014664,293.148682 134.017456,292.717285 
	C134.020264,292.285858 135.009048,292.281403 135.497070,292.360443 
	C135.583862,292.833099 135.157135,293.196777 134.359192,293.772339 
z"/>
<path fill="#FE211C" opacity="1.000000" stroke="none" 
	d="
M528.334351,1791.999756 
	C528.334351,1380.742920 528.334351,970.486145 528.334351,558.989563 
	C1493.031250,558.989563 2456.826416,558.989563 3421.120605,558.989563 
	C3421.120605,1530.638184 3421.120605,2500.788330 3421.120605,3471.469238 
	C2457.027588,3471.469238 1493.479858,3471.469238 529.906799,3471.469238 
	C529.710266,3471.250732 529.479736,3471.010986 529.269104,3470.754883 
	C529.061218,3470.502686 528.701538,3470.233887 528.701416,3469.972168 
	C528.562927,2910.981445 528.448730,2351.990723 528.334351,1791.999756 
M1601.000000,660.000000 
	C1281.686401,660.000000 962.372864,659.992798 643.059265,660.018677 
	C624.746277,660.020142 625.781372,658.260925 625.780762,677.344421 
	C625.771545,964.327942 625.774292,1251.311523 625.774292,1538.295044 
	C625.774231,2135.260742 625.773987,2732.226562 625.780151,3329.192383 
	C625.780212,3333.524414 625.845154,3337.857178 625.923767,3342.188477 
	C625.995300,3346.133057 628.035828,3348.472900 631.950989,3348.787354 
	C636.592834,3349.160889 641.256958,3349.447266 645.911438,3349.447510 
	C1523.194580,3349.475586 2400.477539,3349.477783 3277.760742,3349.431396 
	C3287.416016,3349.430664 3297.069824,3348.728027 3306.727295,3348.454834 
	C3311.567383,3348.318115 3314.166748,3346.176514 3314.131348,3341.152344 
	C3314.100830,3336.820312 3314.221191,3332.487549 3314.221191,3328.155029 
	C3314.225830,2780.853027 3314.226074,2233.551025 3314.226074,1686.249023 
	C3314.226074,1350.268311 3314.226074,1014.287537 3314.219482,678.306824 
	C3314.219238,674.308167 3314.146240,670.309204 3314.070557,666.311035 
	C3313.994629,662.294617 3312.004639,660.155396 3307.899902,660.126282 
	C3303.567627,660.095520 3299.235352,660.005371 3294.903076,660.005310 
	C2730.935303,659.999695 2166.967773,660.000000 1601.000000,660.000000 
z"/>
<path fill="#BB6D52" opacity="1.000000" stroke="none" 
	d="
M263.659119,3728.575439 
	C263.829132,3723.066162 263.989380,3718.070068 263.989410,3713.074219 
	C264.000336,2578.942139 263.999908,1444.810181 264.001740,310.678101 
	C264.001770,305.679108 264.028168,300.680145 264.075317,294.762512 
	C264.730469,295.275879 265.782410,296.676453 265.889771,298.146027 
	C266.156250,301.793396 265.998932,305.472260 265.998932,309.138489 
	C266.001343,1449.680176 266.002716,2590.221680 266.018188,3731.757812 
	C262.668396,3733.238281 262.355194,3731.677734 263.659119,3728.575439 
z"/>
<path fill="#F88126" opacity="1.000000" stroke="none" 
	d="
M1602.000000,660.000000 
	C2166.967773,660.000000 2730.935303,659.999695 3294.903076,660.005310 
	C3299.235352,660.005371 3303.567627,660.095520 3307.899902,660.126282 
	C3312.004639,660.155396 3313.994629,662.294617 3314.070557,666.311035 
	C3314.146240,670.309204 3314.219238,674.308167 3314.219482,678.306824 
	C3314.226074,1014.287537 3314.226074,1350.268311 3314.226074,1686.249023 
	C3314.226074,2233.551025 3314.225830,2780.853027 3314.221191,3328.155029 
	C3314.221191,3332.487549 3314.100830,3336.820312 3314.131348,3341.152344 
	C3314.166748,3346.176514 3311.567383,3348.318115 3306.727295,3348.454834 
	C3297.069824,3348.728027 3287.416016,3349.430664 3277.760742,3349.431396 
	C2400.477539,3349.477783 1523.194580,3349.475586 645.911438,3349.447510 
	C641.256958,3349.447266 636.592834,3349.160889 631.950989,3348.787354 
	C628.035828,3348.472900 625.995300,3346.133057 625.923767,3342.188477 
	C625.845154,3337.857178 625.780212,3333.524414 625.780151,3329.192383 
	C625.773987,2732.226562 625.774231,2135.260742 625.774292,1538.295044 
	C625.774292,1251.311523 625.771545,964.327942 625.780762,677.344421 
	C625.781372,658.260925 624.746277,660.020142 643.059265,660.018677 
	C962.372864,659.992798 1281.686401,660.000000 1602.000000,660.000000 
M759.030273,3227.665527 
	C759.382324,3227.598633 759.734436,3227.531494 761.948303,3227.533203 
	C767.281128,3227.571777 772.613953,3227.644775 777.946777,3227.644775 
	C1573.267212,3227.649902 2368.587646,3227.649902 3163.907959,3227.643555 
	C3169.907471,3227.643311 3175.906738,3227.552246 3182.712402,3227.224365 
	C3183.223389,3226.930420 3183.601807,3226.515381 3184.063477,3224.117432 
	C3184.120605,3219.786865 3184.227783,3215.456299 3184.227783,3211.125732 
	C3184.235107,2404.111816 3184.235596,1597.098022 3184.222900,790.084106 
	C3184.222656,785.422485 3184.038086,780.760864 3183.563477,775.670227 
	C3183.067627,775.326843 3182.531250,775.254211 3180.087158,775.520996 
	C3174.089844,775.560669 3168.092285,775.635010 3162.094971,775.635071 
	C2367.072754,775.640259 1572.050415,775.640198 777.028137,775.635925 
	C770.697449,775.635864 764.366821,775.574524 757.496582,775.448120 
	C756.901855,775.522766 756.503235,775.847839 756.284241,778.244507 
	C756.270020,781.577332 756.243347,784.910095 756.243347,788.242920 
	C756.241455,1596.105225 756.241089,2403.967529 756.252197,3211.829834 
	C756.252258,3216.493652 756.414307,3221.157715 756.718445,3226.635254 
	C756.994141,3227.154785 757.406921,3227.519043 759.030273,3227.665527 
z"/>
<path fill="#A7431A" opacity="1.000000" stroke="none" 
	d="
M758.036133,775.541870 
	C764.366821,775.574524 770.697449,775.635864 777.028137,775.635925 
	C1572.050415,775.640198 2367.072754,775.640259 3162.094971,775.635071 
	C3168.092285,775.635010 3174.089844,775.560669 3181.510742,775.667603 
	C3183.269531,775.909241 3183.604492,776.004211 3183.939697,776.099243 
	C3184.038086,780.760864 3184.222656,785.422485 3184.222900,790.084106 
	C3184.235596,1597.098022 3184.235107,2404.111816 3184.227783,3211.125732 
	C3184.227783,3215.456299 3184.120605,3219.786865 3183.612793,3225.277344 
	C3182.712891,3226.756836 3182.294434,3227.112549 3181.906250,3227.503662 
	C3175.906738,3227.552246 3169.907471,3227.643311 3163.907959,3227.643555 
	C2368.587646,3227.649902 1573.267212,3227.649902 777.946777,3227.644775 
	C772.613953,3227.644775 767.281128,3227.571777 760.690186,3227.226562 
	C758.973450,3226.578125 758.496155,3226.264893 757.625732,3225.936035 
	C757.251404,3225.891602 756.500732,3225.821533 756.500732,3225.821533 
	C756.414307,3221.157715 756.252258,3216.493652 756.252197,3211.829834 
	C756.241089,2403.967529 756.241455,1596.105225 756.243347,788.242920 
	C756.243347,784.910095 756.270020,781.577332 756.735962,777.132812 
	C757.187744,776.021057 758.036133,775.541870 758.036133,775.541870 
M3070.510254,3120.666016 
	C3071.046387,3120.751709 3071.536377,3120.635498 3073.261230,3120.419434 
	C3074.645508,3119.394775 3076.972412,3118.563232 3077.229492,3117.307861 
	C3077.888428,3114.093506 3077.719482,3110.690674 3077.719482,3107.363037 
	C3077.732910,2378.372803 3077.732666,1649.382812 3077.727295,920.392639 
	C3077.727295,917.393799 3077.603271,914.394897 3077.604248,911.396057 
	C3077.605713,907.634399 3075.398926,906.101868 3071.556885,905.401733 
	C3071.026855,905.197632 3070.504395,905.219055 3068.119629,905.573303 
	C3061.788086,905.612488 3055.456543,905.686035 3049.125000,905.686035 
	C2326.558350,905.691223 1603.991577,905.690918 881.424866,905.692444 
	C877.092224,905.692444 872.751892,905.563843 868.429810,905.783264 
	C865.894165,905.912048 863.387390,906.611145 861.151794,907.003784 
	C860.615479,908.720764 860.181335,909.641785 860.060425,910.602295 
	C859.853027,912.250061 859.759094,913.922485 859.759094,915.584534 
	C859.758118,1647.816406 859.768494,2380.048340 859.809753,3112.280273 
	C859.809814,3113.918457 860.252136,3115.558838 860.522278,3117.192383 
	C860.573792,3117.503906 860.751770,3117.813721 860.936707,3118.078613 
	C861.124939,3118.347900 861.393921,3118.561035 863.031372,3120.228027 
	C867.183716,3120.228027 872.758789,3120.227783 878.333862,3120.227783 
	C1602.567017,3120.227783 2326.800293,3120.227539 3051.033447,3120.238281 
	C3057.363770,3120.238525 3063.694336,3120.396240 3070.510254,3120.666016 
z"/>
<path fill="#E36220" opacity="1.000000" stroke="none" 
	d="
M3183.751465,775.884766 
	C3183.604492,776.004211 3183.269531,775.909241 3182.444336,775.633301 
	C3182.531250,775.254211 3183.067627,775.326843 3183.751465,775.884766 
z"/>
<path fill="#BB6220" opacity="1.000000" stroke="none" 
	d="
M3182.309326,3227.364014 
	C3182.294434,3227.112549 3182.712891,3226.756836 3183.504395,3226.208008 
	C3183.601807,3226.515381 3183.223389,3226.930420 3182.309326,3227.364014 
z"/>
<path fill="#BB6220" opacity="1.000000" stroke="none" 
	d="
M758.000122,3225.980469 
	C758.496155,3226.264893 758.973450,3226.578125 759.759277,3227.191895 
	C759.734436,3227.531494 759.382324,3227.598633 758.506104,3227.260498 
	C757.981873,3226.855469 758.000122,3225.980469 758.000122,3225.980469 
z"/>
<path fill="#BB531D" opacity="1.000000" stroke="none" 
	d="
M757.625732,3225.936035 
	C758.000122,3225.980469 757.981873,3226.855469 757.969299,3227.291748 
	C757.406921,3227.519043 756.994141,3227.154785 756.609619,3226.228516 
	C756.500732,3225.821533 757.251404,3225.891602 757.625732,3225.936035 
z"/>
<path fill="#E36220" opacity="1.000000" stroke="none" 
	d="
M757.766357,775.494995 
	C758.036133,775.541870 757.187744,776.021057 756.744263,776.222168 
	C756.503235,775.847839 756.901855,775.522766 757.766357,775.494995 
z"/>
<path fill="#3B1B11" opacity="1.000000" stroke="none" 
	d="
M3072.013672,905.693054 
	C3075.398926,906.101868 3077.605713,907.634399 3077.604248,911.396057 
	C3077.603271,914.394897 3077.727295,917.393799 3077.727295,920.392639 
	C3077.732666,1649.382812 3077.732910,2378.372803 3077.719482,3107.363037 
	C3077.719482,3110.690674 3077.888428,3114.093506 3077.229492,3117.307861 
	C3076.972412,3118.563232 3074.645508,3119.394775 3072.128418,3120.364258 
	C3070.995361,3120.308838 3070.024658,3120.480469 3070.024658,3120.480469 
	C3063.694336,3120.396240 3057.363770,3120.238525 3051.033447,3120.238281 
	C2326.800293,3120.227539 1602.567017,3120.227783 878.333862,3120.227783 
	C872.758789,3120.227783 867.183716,3120.228027 863.031372,3120.228027 
	C861.393921,3118.561035 861.124939,3118.347900 860.936707,3118.078613 
	C860.751770,3117.813721 860.573792,3117.503906 860.522278,3117.192383 
	C860.252136,3115.558838 859.809814,3113.918457 859.809753,3112.280273 
	C859.768494,2380.048340 859.758118,1647.816406 859.759094,915.584534 
	C859.759094,913.922485 859.853027,912.250061 860.060425,910.602295 
	C860.181335,909.641785 860.615479,908.720764 861.151794,907.003784 
	C863.387390,906.611145 865.894165,905.912048 868.429810,905.783264 
	C872.751892,905.563843 877.092224,905.692444 881.424866,905.692444 
	C1603.991577,905.690918 2326.558350,905.691223 3049.125000,905.686035 
	C3055.456543,905.686035 3061.788086,905.612488 3069.555664,905.619751 
	C3071.332275,905.675049 3071.673096,905.684021 3072.013672,905.693054 
z"/>
<path fill="#8C431A" opacity="1.000000" stroke="none" 
	d="
M3070.267578,3120.573242 
	C3070.024658,3120.480469 3070.995361,3120.308838 3071.487793,3120.312988 
	C3071.536377,3120.635498 3071.046387,3120.751709 3070.267578,3120.573242 
z"/>
<path fill="#8C2F15" opacity="1.000000" stroke="none" 
	d="
M3071.785156,905.547363 
	C3071.673096,905.684021 3071.332275,905.675049 3070.490723,905.566040 
	C3070.504395,905.219055 3071.026855,905.197632 3071.785156,905.547363 
z"/>
</svg>